<svg width="31" height="30" viewBox="0 0 31 30" fill="none" xmlns="http://www.w3.org/2000/svg">
<path d="M26.4327 11.8H25.0577C24.8702 11.8 24.6827 11.8375 24.5077 11.8875L18.2702 5.64999C18.8702 4.87499 18.8202 3.76249 18.1077 3.06249L17.1327 2.08749C16.3952 1.34999 15.0952 1.34999 14.3452 2.08749L13.3702 3.06249C12.6702 3.76249 12.6202 4.87499 13.2202 5.64999L6.98267 11.8875C6.80767 11.8375 6.62017 11.8 6.43267 11.8H5.05767C3.97017 11.8 3.08267 12.6875 3.08267 13.775V15.15C3.08267 16.2375 3.97017 17.125 5.05767 17.125H6.43267C7.52017 17.125 8.40767 16.2375 8.40767 15.15V13.775C8.40767 13.5875 8.37017 13.4 8.32017 13.225L14.5577 6.98749C14.8952 7.24999 15.3202 7.38749 15.7452 7.38749C16.1702 7.38749 16.5952 7.23749 16.9452 6.97499L23.1827 13.2125C23.1327 13.3875 23.0952 13.575 23.0952 13.7625V15.1375C23.0952 16.225 23.9827 17.1125 25.0702 17.1125H26.4452C27.5327 17.1125 28.4202 16.225 28.4202 15.1375V13.7625C28.3952 12.675 27.5202 11.8 26.4327 11.8Z" fill="#1AAB7B"/>
<path d="M20.4327 20.6875L18.3827 22.5H13.0577L11.0077 20.6875C9.82018 19.7125 9.82018 18.9625 10.7202 17.8125L14.3327 13.2375C14.5827 12.925 14.8702 12.7125 15.1952 12.6C15.5327 12.4875 15.8952 12.4875 16.2452 12.6C16.5577 12.7125 16.8452 12.925 17.1077 13.2375L20.7202 17.8125C21.6202 18.95 21.5827 19.6625 20.4327 20.6875Z" fill="#1AAB7B"/>
<path d="M17.3577 27.5H14.1202C12.9702 27.5 12.1077 26.5625 12.3327 25.5625L12.7202 23.825C12.7952 23.475 13.1077 23.2375 13.4577 23.2375H18.0202C18.3702 23.2375 18.6702 23.475 18.7577 23.825L19.1452 25.5625C19.3952 26.625 18.5827 27.5 17.3577 27.5Z" fill="#1AAB7B"/>
</svg>
