<svg width="31" height="30" viewBox="0 0 31 30" fill="none" xmlns="http://www.w3.org/2000/svg">
<path d="M20.9827 2.5H10.5077C5.95768 2.5 3.24518 5.2125 3.24518 9.7625V20.225C3.24518 24.7875 5.95768 27.5 10.5077 27.5H20.9702C25.5202 27.5 28.2327 24.7875 28.2327 20.2375V9.7625C28.2452 5.2125 25.5327 2.5 20.9827 2.5ZM13.1327 20.2375C13.1327 21.0375 12.4827 21.6875 11.6702 21.6875C10.8702 21.6875 10.2202 21.0375 10.2202 20.2375V16.1625C10.2202 15.3625 10.8702 14.7125 11.6702 14.7125C12.4827 14.7125 13.1327 15.3625 13.1327 16.1625V20.2375ZM21.2702 20.2375C21.2702 21.0375 20.6202 21.6875 19.8202 21.6875C19.0077 21.6875 18.3577 21.0375 18.3577 20.2375V9.7625C18.3577 8.9625 19.0077 8.3125 19.8202 8.3125C20.6202 8.3125 21.2702 8.9625 21.2702 9.7625V20.2375Z" fill="#1AAB7B"/>
</svg>
