<svg width="31" height="30" viewBox="0 0 31 30" fill="none" xmlns="http://www.w3.org/2000/svg">
<path d="M17.5826 9.26253L20.6576 7.75002C21.0326 7.56252 21.1326 7.07503 20.8451 6.77503C19.7326 5.55003 18.6076 4.52503 17.7076 3.75003C17.2951 3.40003 16.6826 3.68753 16.6826 4.22503V8.70003C16.6826 9.16253 17.1701 9.46252 17.5826 9.26253Z" fill="#1AAB7B"/>
<path d="M16.6826 24.675V26.7375C16.6826 27.1125 17.0201 27.425 17.3951 27.3625C20.8076 26.8 23.6576 24.5125 25.0076 21.4375C25.2451 20.9125 24.6701 20.3875 24.1451 20.6375L17.0326 24.125C16.8201 24.225 16.6826 24.4375 16.6826 24.675Z" fill="#1AAB7B"/>
<path d="M14.8076 4.20003C14.8076 3.66253 14.1951 3.37503 13.7826 3.71253C10.8326 6.18753 5.59508 11.4 5.62008 17.375C5.62008 22.4 9.29508 26.5625 14.0951 27.3625C14.4701 27.425 14.8076 27.1125 14.8076 26.7375V4.20003Z" fill="#1AAB7B"/>
<path d="M17.5452 15.5875L24.1577 12.8125C24.4952 12.6625 24.6577 12.275 24.4952 11.95C24.0327 11.0375 23.4952 10.15 22.9077 9.32499C22.7327 9.07499 22.4077 8.99999 22.1327 9.12499L17.0202 11.6125C16.8077 11.7125 16.6702 11.9375 16.6702 12.175V15.0125C16.6827 15.45 17.1327 15.7625 17.5452 15.5875Z" fill="#1AAB7B"/>
<path d="M25.5326 17.8875C25.7326 17.7875 25.8576 17.6 25.8576 17.3875C25.8576 16.5875 25.7576 15.8 25.5826 15.025C25.4951 14.65 25.0826 14.45 24.7326 14.6L17.0576 17.875C16.8326 17.975 16.6826 18.2 16.6826 18.45V21.2C16.6826 21.6625 17.1701 21.9625 17.5826 21.7625L24.9576 18.175L25.5326 17.8875Z" fill="#1AAB7B"/>
</svg>
