<svg width="31" height="30" viewBox="0 0 31 30" fill="none" xmlns="http://www.w3.org/2000/svg">
<path d="M25.1702 8.175L21.3327 4.3375C20.1577 3.1625 18.5702 2.5 16.9077 2.5H10.7452C6.99518 2.5 4.49518 5 4.49518 8.75V21.25C4.49518 25 6.99518 27.5 10.7452 27.5H20.7452C24.4952 27.5 26.9952 25 26.9952 21.25V12.5875C26.9952 10.925 26.3327 9.3375 25.1702 8.175ZM13.2827 21.8375C13.6452 22.2 13.6452 22.8 13.2827 23.1625C13.0952 23.35 12.8577 23.4375 12.6202 23.4375C12.3827 23.4375 12.1452 23.35 11.9577 23.1625L9.45768 20.6625C9.09518 20.3 9.09518 19.7 9.45768 19.3375L11.9577 16.8375C12.3202 16.475 12.9202 16.475 13.2827 16.8375C13.6452 17.2 13.6452 17.8 13.2827 18.1625L11.4452 20L13.2827 21.8375ZM22.0327 20.6625L19.5327 23.1625C19.3452 23.35 19.1077 23.4375 18.8702 23.4375C18.6327 23.4375 18.3952 23.35 18.2077 23.1625C17.8452 22.8 17.8452 22.2 18.2077 21.8375L20.0452 20L18.2077 18.1625C17.8452 17.8 17.8452 17.2 18.2077 16.8375C18.5702 16.475 19.1702 16.475 19.5327 16.8375L22.0327 19.3375C22.3952 19.7 22.3952 20.3 22.0327 20.6625Z" fill="#1AAB7B"/>
</svg>
