<svg width="31" height="30" viewBox="0 0 31 30" fill="none" xmlns="http://www.w3.org/2000/svg">
<path d="M27.0452 16.6L25.8952 15.475L16.2077 25.15L17.3702 26.3125C18.3452 27.2875 19.3577 27.775 20.3577 27.775C21.3577 27.775 22.3702 27.2875 23.3452 26.3125L27.0452 22.6125C29.0327 20.6125 29.0327 18.6 27.0452 16.6Z" fill="#1AAB7B"/>
<path d="M14.1077 3.66255C12.1452 1.70005 10.0827 1.70005 8.12019 3.66255L4.40769 7.36255C2.45769 9.32505 2.45769 11.3875 4.40769 13.35L5.55769 14.5L15.2452 4.81255L14.1077 3.66255Z" fill="#1AAB7B"/>
<path d="M28.0077 4.92499C26.3702 9.01249 22.6327 14.35 19.0702 17.8375C18.5577 14.6125 15.9827 12.0875 12.7327 11.6375C16.2327 8.06249 21.6077 4.27499 25.7077 2.62499C26.4327 2.34999 27.1577 2.56249 27.6077 3.01249C28.0827 3.48749 28.3077 4.19999 28.0077 4.92499Z" fill="#1AAB7B"/>
<path d="M17.9702 18.8625C17.7202 19.075 17.4702 19.2875 17.2202 19.4875L14.9827 21.275C14.9827 21.2375 14.9702 21.1875 14.9702 21.1375C14.7952 19.8 14.1702 18.5625 13.1577 17.55C12.1327 16.525 10.8577 15.9 9.4577 15.725C9.4202 15.725 9.3702 15.7125 9.3327 15.7125L11.1452 13.425C11.3202 13.2 11.5077 12.9875 11.7077 12.7625L12.5577 12.875C15.2452 13.25 17.4077 15.3625 17.8327 18.0375L17.9702 18.8625Z" fill="#1AAB7B"/>
<path d="M13.7827 22.025C13.7827 23.4 13.2577 24.7125 12.2577 25.7C11.4952 26.475 10.4702 27 9.22019 27.15L6.15769 27.4875C4.48269 27.675 3.04519 26.2375 3.23269 24.55L3.57019 21.475C3.87019 18.7375 6.15769 16.9875 8.58269 16.9375C8.82019 16.925 9.08269 16.9375 9.33269 16.9625C10.3952 17.1 11.4202 17.5875 12.2827 18.4375C13.1202 19.275 13.5952 20.2625 13.7327 21.3C13.7577 21.55 13.7827 21.7875 13.7827 22.025Z" fill="#1AAB7B"/>
</svg>
